<?xml version="1.0" standalone="no"?>
<!DOCTYPE svg PUBLIC "-//W3C//DTD SVG 20010904//EN"
 "http://www.w3.org/TR/2001/REC-SVG-20010904/DTD/svg10.dtd">
<svg version="1.0" xmlns="http://www.w3.org/2000/svg"
 width="81.000000pt" height="81.000000pt" viewBox="0 0 81.000000 81.000000"
 preserveAspectRatio="xMidYMid meet">
<metadata>
Created by potrace 1.11, written by Peter Selinger 2001-2013
</metadata>
<g transform="translate(0.000000,81.000000) scale(0.100000,-0.100000)"
fill="#000000" stroke="none">
<path d="M360 788 c-19 -11 -51 -30 -70 -41 -19 -10 -81 -46 -137 -79 l-103
-60 0 -203 0 -203 142 -82 c79 -45 157 -90 174 -100 30 -17 32 -17 79 7 27 13
60 32 74 42 14 9 72 43 129 75 l102 58 0 203 0 203 -174 101 c-96 56 -176 101
-178 101 -2 0 -19 -10 -38 -22z"/>
</g>
</svg>
